<?xml version="1.0" encoding="utf-8"?>
<!-- Svg Vector Icons : http://www.onlinewebfonts.com/icon -->
<!DOCTYPE svg PUBLIC "-//W3C//DTD SVG 1.1//EN" "http://www.w3.org/Graphics/SVG/1.1/DTD/svg11.dtd">
<svg version="1.1" xmlns="http://www.w3.org/2000/svg" xmlns:xlink="http://www.w3.org/1999/xlink" x="0px" y="0px" viewBox="0 0 1000 1000" enable-background="new 0 0 1000 1000" xml:space="preserve">
<metadata> Svg Vector Icons : http://www.onlinewebfonts.com/icon </metadata>
<g><g transform="translate(0.000000,511.000000) scale(0.100000,-0.100000)"><path d="M4349.5,4986.1c-131.1-33.5-371-172.9-446.3-262.2c-39-47.4-103.2-147.8-142.2-225.9c-64.2-125.5-75.3-184.1-86.5-482.5l-11.2-340.3l-563.4-8.4c-529.9-8.4-569-11.1-700.1-78.1c-663.8-326.3-686.1-1232.8-41.8-1587c167.4-92.1,198-100.4,418.4-100.4c203.6,2.8,256.6,13.9,390.5,80.9c83.7,44.6,231.5,156.2,326.3,248.2l175.7,167.4v-1693V-991.1l-248.2,234.3c-290.1,267.8-474.2,387.7-761.5,490.9c-178.5,64.2-248.2,72.5-552.3,75.3c-292.9,0-379.3-11.1-543.9-64.2C1077.8-416.5,902-623,1030.4-868.4c22.3-41.8,772.6-803.3,1667.9-1693C3892-3752.4,4377.4-4218.2,4528-4315.8c273.3-181.3,574.6-315.2,895.3-401.6c231.5-61.4,326.3-69.7,700.1-72.5c354.2,0,476.9,11.2,677.8,61.4c1065.5,265,1874.3,1071.1,2147.7,2144.9c58.6,234.3,61.4,298.5,61.4,1305.3c0,1029.2-2.8,1062.7-61.4,1191c-33.5,72.5-114.3,184.1-181.3,251C8611.4,317,6541.8,1519.1,6335.4,1572.1c-259.4,69.7-588.5-16.7-789.3-209.2l-92-83.7v557.8v557.8l189.6-178.5c267.8-251,404.4-312.4,702.9-312.4c203.6,0,256.6,11.1,379.3,72.5c209.2,108.8,298.4,195.2,404.4,390.5c86.5,161.8,94.8,195.2,94.8,412.8c0,195.2-13.9,262.2-69.7,376.5c-86.4,178.5-253.8,345.9-432.3,432.3c-131.1,66.9-170.1,69.7-700.1,78.1l-563.4,8.4l-11.2,340.3c-8.4,329.1-11.2,345.9-108.8,521.6C5141.6,4899.6,4742.7,5078.1,4349.5,4986.1z M4806.9,4489.6c161.8-119.9,186.9-184.1,195.2-513.2l11.2-304h-449.1h-449.1v262.2c0,359.8,61.4,499.3,265,591.3C4491.7,4578.8,4712.1,4559.3,4806.9,4489.6z M4790.2,3067.1l217.5-217.5V1719.9c0-1230,0-1224.4,156.2-1283c114.4-44.6,192.5,11.2,454.6,329.1c278.9,334.7,401.7,415.6,583,382.1C6296.3,1131.4,8312.9-26.1,8435.6-132c133.9-120,142.2-175.7,142.2-1124.1c0-761.4-8.4-923.2-53-1143.6c-189.7-914.8-867.4-1634.4-1776.7-1882.7c-178.5-47.4-298.4-58.6-624.8-58.6c-359.8,0-432.3,8.4-649.9,72.5c-301.3,92-566.2,223.1-786.6,390.5c-92,69.7-842.3,803.3-1670.7,1631.7L1515.7-742.9l133.9,47.4c186.9,66.9,518.8,86.5,714,47.4c309.6-64.2,479.7-178.5,917.6-608.1c281.7-273.3,429.5-398.8,471.4-398.8c100.4,0,248.2,108.8,306.8,225.9c53,103.2,55.8,172.9,55.8,2192.3v2086.3l214.8,214.8c119.9,119.9,223.1,217.5,231.5,217.5C4567,3281.9,4673,3184.3,4790.2,3067.1z M3668.9,3134.1c0-83.7-39-133.9-343.1-432.3c-276.1-267.8-365.4-340.3-446.3-354.2c-161.8-30.7-287.3,5.6-407.2,119.9c-172.9,164.6-189.7,415.6-39,594.1c125.5,147.8,195.2,161.8,741.9,164.6h493.7V3134.1z M6522.2,3187.1c290.1-119.9,357-488.1,131.1-714c-119.9-119.9-242.7-156.2-410-125.5c-86.4,14-170.1,83.7-446.3,357c-301.2,295.7-343,348.6-343,429.5v92h488.1C6293.5,3226.1,6458.1,3215,6522.2,3187.1z"/></g></g>
</svg>